<?xml version="1.0" encoding="UTF-8" standalone="no"?>
<!-- Created with Inkscape (http://www.inkscape.org/) -->

<svg
   xmlns:dc="http://purl.org/dc/elements/1.1/"
   xmlns:cc="http://creativecommons.org/ns#"
   xmlns:rdf="http://www.w3.org/1999/02/22-rdf-syntax-ns#"
   xmlns:svg="http://www.w3.org/2000/svg"
   xmlns="http://www.w3.org/2000/svg"
   xmlns:sodipodi="http://sodipodi.sourceforge.net/DTD/sodipodi-0.dtd"
   xmlns:inkscape="http://www.inkscape.org/namespaces/inkscape"
   width="63.62566"
   height="47.672066"
   viewBox="0 0 63.625661 47.672066"
   id="svg2"
   version="1.1"
   inkscape:version="0.91 r13725"
   sodipodi:docname="drawing.svg">
  <defs
     id="defs4" />
  <sodipodi:namedview
     id="base"
     pagecolor="#ffffff"
     bordercolor="#666666"
     borderopacity="1.0"
     inkscape:pageopacity="0.0"
     inkscape:pageshadow="2"
     inkscape:zoom="3.959798"
     inkscape:cx="41.722424"
     inkscape:cy="3.101288"
     inkscape:document-units="px"
     inkscape:current-layer="layer1"
     showgrid="false"
     showguides="true"
     inkscape:guide-bbox="true"
     inkscape:snap-grids="true"
     units="px"
     fit-margin-top="5"
     fit-margin-left="5"
     fit-margin-right="5"
     fit-margin-bottom="5"
     inkscape:window-width="1600"
     inkscape:window-height="821"
     inkscape:window-x="1280"
     inkscape:window-y="73"
     inkscape:window-maximized="1">
    <sodipodi:guide
       position="5.0486392,20.18523"
       orientation="1,0"
       id="guide3402" />
    <sodipodi:guide
       position="-8.8409589,42.913629"
       orientation="0,1"
       id="guide3404" />
    <sodipodi:guide
       position="-25.255938,24.73093"
       orientation="0,1"
       id="guide3406" />
  </sodipodi:namedview>
  <metadata
     id="metadata7">
    <rdf:RDF>
      <cc:Work
         rdf:about="">
        <dc:format>image/svg+xml</dc:format>
        <dc:type
           rdf:resource="http://purl.org/dc/dcmitype/StillImage" />
        <dc:title></dc:title>
      </cc:Work>
    </rdf:RDF>
  </metadata>
  <g
     inkscape:label="Layer 1"
     inkscape:groupmode="layer"
     id="layer1"
     style="display:inline"
     transform="translate(-0.0021236,0.682115)">
    <path
       id="path3338"
       d="m 11.002124,22.307885 c 0,0 -4.0000004,0 -4.0000004,0 0,0 0,-8.49 0,-8.49 0,0 -2,0 -2,0 0,0 0,-3.28 0,-3.28 0,0 2,0 2,0 0,0 0,-1.96 0,-1.96 0,-2.67 1.13,-4.26 4.3300004,-4.26 0,0 2.670003,0 2.670003,0 0,0 0,3.27 0,3.27 0,0 -1.670003,0 -1.670003,0 -1.25,0 -1.33,0.46 -1.33,1.31 0,0 0,1.64 0,1.64 0,0 3.020003,0 3.020003,0 0,0 -0.36,3.28 -0.36,3.28 0,0 -2.660003,0 -2.660003,0 0,0 0,8.49 0,8.49 z"
       fillRule="evenodd"
       inkscape:connector-curvature="0"
       style="opacity:0.3;fill:#25272d" />
    <path
       id="path3349"
       d="m 42.253861,12.635062 c 0,0 0,2.61 0,2.61 0,0 -1.93,0 -1.93,0 0,0 0,-2.61 0,-2.61 0,0 -2.65,0 -2.65,0 0,0 0,-1.9 0,-1.9 0,0 2.65,0 2.65,0 0,0 0,-2.6100001 0,-2.6100001 0,0 1.93,0 1.93,0 0,0 0,2.6100001 0,2.6100001 0,0 2.65,0 2.65,0 0,0 0,1.9 0,1.9 0,0 -2.65,0 -2.65,0 z m -13.73,6.93 c -4.21,0 -7.62,-3.36 -7.62,-7.5 0,-4.1400001 3.41,-7.5000001 7.62,-7.5000001 1.98,0 3.78,0.75 5.13,1.97 0,0 -2.24,2.16 -2.24,2.16 -0.78,-0.65 -1.79,-1.04 -2.89,-1.04 -2.48,0 -4.49,1.97 -4.49,4.4100001 0,2.44 2.01,4.41 4.49,4.41 1.91,0 3.54,-1.18 4.19,-2.84 0,0 -4.29,0 -4.29,0 0,0 0,-3.14 0,-3.14 0,0 4.29,0 4.29,0 0,0 3.23,0 3.23,0 0,0 0.02,0 0.02,0 0.11,0.51 0.17,1.03 0.17,1.57 0,4.14 -3.41,7.5 -7.61,7.5 z"
       fillRule="evenodd"
       inkscape:connector-curvature="0"
       style="opacity:0.3;fill:#25272d" />
    <path
       id="path3360"
       d="m 55.14643,40.491108 c 0,0 0,-5.41 0,-5.41 0,-1.37 -0.5,-2.29 -1.74,-2.29 -0.95,0 -1.51,0.62 -1.76,1.23 -0.09,0.21 -0.11,0.52 -0.11,0.82 0,0 0,5.65 0,5.65 0,0 -3.43,0 -3.43,0 0,0 0.04,-9.17 0,-10.12 0,0 3.43,0 3.43,0 0,0 0,1.43 0,1.43 -0.01,0.01 -0.02,0.03 -0.02,0.04 0,0 0.02,0 0.02,0 0,0 0,-0.04 0,-0.04 0.45,-0.69 1.27,-1.67 3.09,-1.67 2.25,0 3.95,1.45 3.95,4.56 0,0 0,5.8 0,5.8 0,0 -3.43,0 -3.43,0 z m -10.65,-11.5 c 0,0 -0.03,0 -0.03,0 -1.15,0 -1.89,-0.78 -1.89,-1.75 0,-0.99 0.77,-1.75 1.94,-1.75 1.17,0 1.89,0.76 1.92,1.75 0,0.97 -0.75,1.75 -1.94,1.75 z m 1.71,11.5 c 0,0 -3.43,0 -3.43,0 0,0 0,-10.12 0,-10.12 0,0 3.43,0 3.43,0 0,0 0,10.12 0,10.12 z"
       fillRule="evenodd"
       inkscape:connector-curvature="0"
       style="opacity:0.3;fill:#25272d" />
    <path
       id="path3371"
       d="m 29.948255,36.229951 c -0.47,2.34 -1.05,4.58 -2.76,5.76 -0.53,-3.54 0.78,-6.2 1.38,-9.03 -1.03,-1.64 0.12,-4.94 2.3,-4.13 2.68,1.01 -2.32,6.11 1.03,6.74 3.51,0.67 4.93,-5.74 2.76,-7.82 -3.13,-3.01 -9.13,-0.07 -8.39,4.24 0.18,1.05 1.33,1.37 0.46,2.82 -2.01,-0.42 -2.61,-1.91 -2.53,-3.91 0.13,-3.27 3.11,-5.55 6.09,-5.87 3.79,-0.4 7.33,1.31 7.82,4.67 0.55,3.8 -1.7,7.91 -5.75,7.61 -1.09,-0.08 -1.55,-0.59 -2.41,-1.08 z"
       fillRule="evenodd"
       inkscape:connector-curvature="0"
       style="opacity:0.3;fill:#25272d" />
    <path
       id="path3382"
       d="m 57.877784,17.279764 c -0.29,0.15 -0.85,0.27 -1.27,0.28 -1.25,0.03 -1.24,-1.18 -1.25,-1.86 0,0 0,-4.8 0,-4.8 0,0 3.02,0 3.02,0 0,0 0,-2.4000002 0,-2.4000002 0,0 -3.02,0 -3.02,0 0,0 0,-4 0,-4 0,0 -2.84,0 -2.88,0 -0.04,0 -0.1,0.04 -0.11,0.12 -0.14,1.25 -0.61,3.01 -2.99,3.88 0,0 0,2.4000002 0,2.4000002 0,0 1.98,0 1.98,0 0,0 0,5.6 0,5.6 0,1.79 1.15,4.06 4.56,4 1.15,-0.02 2.43,-0.51 2.71,-0.93 0,0 -0.75,-2.29 -0.75,-2.29 z"
       fillRule="evenodd"
       inkscape:connector-curvature="0"
       style="opacity:0.3;fill:#25272d" />
    <path
       id="path3393"
       d="m 22.200533,27.259874 c -0.63,0.28 -1.3,0.47 -2,0.55 0.72,-0.43 1.27,-1.13 1.53,-1.95 -0.67,0.4 -1.42,0.7 -2.21,0.86 -0.64,-0.69 -1.55,-1.12 -2.55,-1.12 -1.93,0 -3.49,1.58 -3.49,3.53 0,0.28 0.03,0.55 0.09,0.81 -2.89,-0.15 -5.4599995,-1.55 -7.1799995,-3.69 -0.3,0.52 -0.48,1.13 -0.48,1.78 0,1.22 0.62,2.300001 1.56,2.940001 -0.58,-0.02 -1.11,-0.18 -1.58,-0.45 0,0.02 0,0.03 0,0.05 0,1.71 1.2,3.14 2.79,3.46 -0.29,0.08 -0.6,0.13 -0.92,0.13 -0.22,0 -0.44,-0.02 -0.65,-0.07 0.44,1.41 1.73,2.43 3.2599995,2.46 -1.1999995,0.95 -2.6999995,1.51 -4.3399995,1.51 -0.28,0 -0.55,-0.01 -0.83,-0.05 1.55,1 3.38,1.59 5.3499995,1.59 6.41,0 9.92,-5.39 9.92,-10.050001 0,-0.16 0,-0.31 -0.01,-0.46 0.68,-0.5 1.27,-1.12 1.74,-1.83 0,0 0,0 0,0 z"
       fillRule="evenodd"
       inkscape:connector-curvature="0"
       style="opacity:0.3;fill:#25272d" />
  </g>
</svg>
