<?xml version="1.0" encoding="utf-8"?>
<svg xmlns="http://www.w3.org/2000/svg"
	xmlns:xlink="http://www.w3.org/1999/xlink"
	width="17px" height="20px" viewBox="0 0 17 20">
<path d="M 14.34 10.57C 14.32 8.05 16.38 6.83 16.48 6.77 15.31 5.05 13.49 4.81 12.86 4.79 11.33 4.63 9.86 5.71 9.08 5.71 8.29 5.71 7.09 4.81 5.81 4.84 4.15 4.86 2.6 5.83 1.75 7.33-0 10.4 1.3 14.9 2.98 17.38 3.83 18.6 4.81 19.95 6.09 19.9 7.35 19.85 7.82 19.09 9.34 19.09 10.84 19.09 11.29 19.9 12.6 19.87 13.95 19.85 14.8 18.65 15.61 17.43 16.58 16.04 16.97 14.67 16.99 14.6 16.95 14.59 14.36 13.59 14.34 10.57ZM 11.86 3.16C 12.54 2.31 13 1.15 12.87-0.03 11.89 0.01 10.67 0.65 9.96 1.49 9.34 2.22 8.78 3.43 8.92 4.56 10.03 4.65 11.15 4 11.86 3.16Z" fill="white"/></svg>