<?xml version="1.0" encoding="utf-8"?>
<svg xmlns="http://www.w3.org/2000/svg"
	xmlns:xlink="http://www.w3.org/1999/xlink"
	width="20px" height="12px" viewBox="0 0 20 12">
<path fillRule="evenodd" d="M 19 7C 19 7 1 7 1 7 0.45 7-0 6.55-0 6-0 5.45 0.45 5 1 5 1 5 19 5 19 5 19.55 5 20 5.45 20 6 20 6.55 19.55 7 19 7ZM 19 2C 19 2 1 2 1 2 0.45 2-0 1.55-0 1-0 0.45 0.45 0 1 0 1 0 19 0 19 0 19.55 0 20 0.45 20 1 20 1.55 19.55 2 19 2ZM 1 10C 1 10 19 10 19 10 19.55 10 20 10.45 20 11 20 11.55 19.55 12 19 12 19 12 1 12 1 12 0.45 12-0 11.55-0 11-0 10.45 0.45 10 1 10Z" fill="rgb(27,27,29)"/></svg>