<?xml version="1.0" encoding="utf-8"?>
<!-- Generator: Adobe Illustrator 22.0.0, SVG Export Plug-In . SVG Version: 6.00 Build 0)  -->
<svg version="1.1" id="hot_x5F_water" xmlns="http://www.w3.org/2000/svg" xmlns:xlink="http://www.w3.org/1999/xlink" x="0px"
	 y="0px" viewBox="0 0 1920 880" enable-background="new 0 0 1920 880" xml:space="preserve">
<line fill="none" stroke="#FF0000" stroke-width="3" stroke-miterlimit="10" x1="1516.5" y1="542.5" x2="1089.5" y2="542.5"/>
<line fill="none" stroke="#FF9FA2" stroke-width="3" stroke-miterlimit="10" x1="1516.5" y1="640.5" x2="1089.5" y2="640.5"/>
<polygon fill="#FF0000" stroke="#FF0000" stroke-miterlimit="10" points="1049.6,542.2 1077.5,549.1 1077.5,535.2 "/>
<polygon fill="#FF9FA2" stroke="#FF9FA2" stroke-miterlimit="10" points="1079.4,640.2 1051.5,633.2 1051.5,647.1 "/>
<polygon fill="#FFFFFF" stroke="#000000" stroke-miterlimit="10" points="1494.5,547.7 1494.5,537.3 1487,541.7 1479.5,537.3 
	1479.5,547.7 1487,543.3 "/>
<polygon fill="#FFFFFF" stroke="#000000" stroke-miterlimit="10" points="1494.5,646.7 1494.5,636.3 1487,640.7 1479.5,636.3 
	1479.5,646.7 1487,642.3 "/>
<polygon fill="#FFFFFF" stroke="#000000" stroke-miterlimit="10" points="1370.5,547.7 1370.5,537.3 1363,541.7 1355.5,537.3 
	1355.5,547.7 1363,543.3 "/>
<polygon fill="#FFFFFF" stroke="#000000" stroke-miterlimit="10" points="1285.5,547.7 1285.5,537.3 1278,541.7 1270.5,537.3 
	1270.5,547.7 1278,543.3 "/>
<g>
	<circle fill="#FFFFFF" stroke="#000000" stroke-width="2" stroke-miterlimit="10" cx="1324" cy="542" r="20"/>
	<polygon fill="#FFFFFF" stroke="#000000" stroke-width="2" stroke-miterlimit="10" points="1305.2,541.7 1333.4,558.5 
		1333.4,524.9 	"/>
</g>
<g id="_x33_way_3_" display="none">
	<g display="inline">
		<polygon fill="#FFFFFF" stroke="#000000" stroke-width="2" stroke-miterlimit="10" points="1146.9,542.7 1131,536 1131,549.4 		
			"/>
		<polygon fill="#FFFFFF" stroke="#000000" stroke-width="2" stroke-miterlimit="10" points="1146.1,542.7 1162,549.4 1162,536 		
			"/>
		<circle fill="none" stroke="#000000" stroke-width="2" stroke-miterlimit="10" cx="1146.5" cy="513.5" r="10.5"/>
		<text transform="matrix(1 0 0 1 1142.2369 517.1824)" font-family="'MyriadPro-Regular'" font-size="12px">M</text>
		<line fill="none" stroke="#29ABE2" stroke-width="3" stroke-miterlimit="10" x1="1146.5" y1="599.5" x2="1146.5" y2="542.5"/>
		<line fill="none" stroke="#29ABE2" stroke-width="3" stroke-miterlimit="10" x1="1402.5" y1="599.5" x2="1146.5" y2="599.5"/>
		<polygon fill="#29ABE2" stroke="#29ABE2" stroke-miterlimit="10" points="1414.6,599.2 1442.5,606.1 1442.5,592.2 		"/>
	</g>
	<g display="inline">
		<polygon fill="#FFFFFF" stroke="#000000" stroke-width="2" stroke-miterlimit="10" points="1146.3,544.1 1139.6,560 1153,560 		
			"/>
		<line fill="none" stroke="#000000" stroke-width="2" stroke-miterlimit="10" x1="1146" y1="543" x2="1146" y2="524"/>
	</g>
</g>
</svg>
