<?xml version="1.0" encoding="utf-8"?>
<!-- Generator: Adobe Illustrator 22.0.0, SVG Export Plug-In . SVG Version: 6.00 Build 0)  -->
<svg version="1.1" id="tank-_x3E_gvs" xmlns="http://www.w3.org/2000/svg" xmlns:xlink="http://www.w3.org/1999/xlink" x="0px"
	 y="0px" viewBox="0 0 1920 880" enable-background="new 0 0 1920 880" xml:space="preserve">
<g>
	<circle fill="none" stroke="#000000" stroke-width="2" stroke-miterlimit="10" cx="1329" cy="243" r="26"/>
	<polygon fill="none" stroke="#000000" stroke-width="2" stroke-miterlimit="10" points="1329.4,218.5 1307.6,255.2 1351.2,255.2 	
		"/>
</g>
<line fill="#FFFFFF" stroke="#29ABE2" stroke-width="4" stroke-miterlimit="10" x1="1260" y1="456" x2="1413" y2="456"/>
<g>
	<line fill="none" stroke="#FF0000" stroke-width="3" stroke-miterlimit="10" x1="1262.8" y1="394.5" x2="1331.3" y2="394.5"/>
	<line fill-rule="evenodd" clip-rule="evenodd" fill="#FFFFFF" x1="1262.8" y1="394.5" x2="1331.3" y2="394.5"/>
</g>
<line fill="#FFFFFF" stroke="#FF0000" stroke-width="3" stroke-miterlimit="10" x1="1329.5" y1="394" x2="1329.5" y2="312.5"/>
<line fill="none" stroke="#29ABE2" stroke-width="3" stroke-miterlimit="10" x1="1411" y1="456" x2="1408" y2="152"/>
<line fill="#FFFFFF" stroke="#FF0000" stroke-width="3" stroke-miterlimit="10" x1="1329" y1="216.5" x2="1329" y2="198.5"/>
<polygon fill="#FFFFFF" stroke="#000000" stroke-miterlimit="10" points="1334.4,283.5 1324,283.5 1328.4,291 1324,298.5 
	1334.4,298.5 1330,291 "/>
<polygon fill="#FFFFFF" stroke="#000000" stroke-miterlimit="10" points="1334.4,183 1324,183 1328.4,190.5 1324,198 1334.4,198 
	1330,190.5 "/>
<line fill="#FFFFFF" stroke="#FF0000" stroke-width="3" stroke-miterlimit="10" x1="1329.5" y1="313" x2="1329.5" y2="299"/>
<line fill="#FFFFFF" stroke="#FF0000" stroke-width="3" stroke-miterlimit="10" x1="1329" y1="283" x2="1329" y2="270"/>
<line fill="#FFFFFF" stroke="#FF0000" stroke-width="3" stroke-miterlimit="10" x1="1329.5" y1="182.5" x2="1329.5" y2="153.5"/>
<line fill="none" stroke="#29ABE2" stroke-width="3" stroke-miterlimit="10" x1="1408.5" y1="152.5" x2="1441.5" y2="152.5"/>
<line fill="none" stroke="#29ABE2" stroke-width="3" stroke-miterlimit="10" x1="1441.5" y1="152.5" x2="1441.5" y2="519.5"/>
<line fill="none" stroke="#29ABE2" stroke-width="3" stroke-miterlimit="10" x1="1441.5" y1="518.5" x2="1516.5" y2="518.5"/>
<line fill="none" stroke="#FF0000" stroke-width="3" stroke-miterlimit="10" x1="1329.5" y1="153.5" x2="1329.5" y2="109.5"/>
<line fill="none" stroke="#FF0000" stroke-width="3" stroke-miterlimit="10" x1="1329.5" y1="109.5" x2="1479.5" y2="109.5"/>
<line fill="none" stroke="#FF0000" stroke-width="3" stroke-miterlimit="10" x1="1479.5" y1="109.5" x2="1479.5" y2="466.5"/>
<line fill="none" stroke="#FF0000" stroke-width="3" stroke-miterlimit="10" x1="1479.5" y1="466.5" x2="1516.5" y2="466.5"/>
<g>
	<line fill="none" stroke="#F15A24" stroke-width="2" stroke-miterlimit="10" x1="1516.5" y1="466.5" x2="1570.5" y2="466.5"/>
	<line fill="none" stroke="#F15A24" stroke-width="2" stroke-miterlimit="10" x1="1569.5" y1="466.5" x2="1602" y2="479"/>
	<line fill="none" stroke="#F15A24" stroke-width="2" stroke-miterlimit="10" x1="1572.5" y1="492.5" x2="1605" y2="503"/>
	<line fill="none" stroke="#F15A24" stroke-width="2" stroke-miterlimit="10" x1="1602" y1="479" x2="1573" y2="492.1"/>
	<line fill="none" stroke="#F15A24" stroke-width="2" stroke-miterlimit="10" x1="1605" y1="503" x2="1575" y2="518.1"/>
	<line fill="none" stroke="#F15A24" stroke-width="2" stroke-miterlimit="10" x1="1519" y1="518" x2="1576" y2="518"/>
</g>
<polygon fill="#FFFFFF" stroke="#000000" stroke-miterlimit="10" points="1505.5,471.7 1505.5,461.3 1498,465.7 1490.5,461.3 
	1490.5,471.7 1498,467.3 "/>
<polygon fill="#FFFFFF" stroke="#000000" stroke-miterlimit="10" points="1494.5,523.7 1494.5,513.3 1487,517.7 1479.5,513.3 
	1479.5,523.7 1487,519.3 "/>
<g>
	<line fill="none" stroke="#FF0000" stroke-width="3" stroke-miterlimit="10" x1="1025.5" y1="394.5" x2="1099.5" y2="394.5"/>
	<line fill-rule="evenodd" clip-rule="evenodd" fill="#FFFFFF" x1="1025.5" y1="394.5" x2="1099.5" y2="394.5"/>
</g>
<line fill="#FFFFFF" stroke="#29ABE2" stroke-width="4" stroke-miterlimit="10" x1="1107" y1="456" x2="1260" y2="456"/>
<g>
	<line fill="none" stroke="#FF0000" stroke-width="3" stroke-miterlimit="10" x1="1109.5" y1="394.5" x2="1178.5" y2="394.5"/>
	<line fill-rule="evenodd" clip-rule="evenodd" fill="#FFFFFF" x1="1109.5" y1="394.5" x2="1178.5" y2="394.5"/>
</g>
<g>
	<line fill="none" stroke="#FF0000" stroke-width="3" stroke-miterlimit="10" x1="1178.5" y1="394.5" x2="1252.5" y2="394.5"/>
	<line fill-rule="evenodd" clip-rule="evenodd" fill="#FFFFFF" x1="1178.5" y1="394.5" x2="1252.5" y2="394.5"/>
</g>
<line fill="#FFFFFF" stroke="#29ABE2" stroke-width="4" stroke-miterlimit="10" x1="789" y1="456" x2="954" y2="456"/>
<g>
	<line fill="none" stroke="#FF0000" stroke-width="3" stroke-miterlimit="10" x1="788.5" y1="394.5" x2="872.5" y2="394.5"/>
	<line fill-rule="evenodd" clip-rule="evenodd" fill="#FFFFFF" x1="788.5" y1="394.5" x2="872.5" y2="394.5"/>
</g>
<polygon fill="#FFFFFF" stroke="#000000" stroke-miterlimit="10" points="815.5,399.7 815.5,389.3 808,393.7 800.5,389.3 
	800.5,399.7 808,395.3 "/>
<polygon fill="#FFFFFF" stroke="#000000" stroke-miterlimit="10" points="815.5,461.7 815.5,451.3 808,455.7 800.5,451.3 
	800.5,461.7 808,457.3 "/>
<line fill="#FFFFFF" stroke="#29ABE2" stroke-width="4" stroke-miterlimit="10" x1="954" y1="456" x2="1107" y2="456"/>
<g>
	<line fill="none" stroke="#FF0000" stroke-width="3" stroke-miterlimit="10" x1="956.5" y1="394.5" x2="1025.5" y2="394.5"/>
	<line fill-rule="evenodd" clip-rule="evenodd" fill="#FFFFFF" x1="956.5" y1="394.5" x2="1025.5" y2="394.5"/>
</g>
<g>
	<line fill="none" stroke="#FF0000" stroke-width="3" stroke-miterlimit="10" x1="872.5" y1="394.5" x2="946.5" y2="394.5"/>
	<line fill-rule="evenodd" clip-rule="evenodd" fill="#FFFFFF" x1="872.5" y1="394.5" x2="946.5" y2="394.5"/>
</g>
<g>
	<line fill="none" stroke="#FF0000" stroke-width="3" stroke-miterlimit="10" x1="872.5" y1="394.5" x2="946.5" y2="394.5"/>
	<line fill-rule="evenodd" clip-rule="evenodd" fill="#FFFFFF" x1="872.5" y1="394.5" x2="946.5" y2="394.5"/>
</g>
</svg>
