<?xml version="1.0" encoding="utf-8"?>
<svg xmlns="http://www.w3.org/2000/svg"
	xmlns:xlink="http://www.w3.org/1999/xlink"
	width="24px" height="28px" viewBox="0 0 24 28">
<path fillRule="evenodd" d="M 17.83 6.26C 21.1 6.26 23.18 9.4 23.18 9.4 23.18 9.4 20 11.11 20 14.84 20 19.27 24 20.56 24 20.56 24 20.56 20.84 28 17.29 28 15.3 28 15.16 26.86 12.51 26.86 10.21 26.86 9.43 28 7.68 28 4.33 28 0.01 20.74 0.01 14.84 0.01 8.71 4.39 6.26 7.13 6.26 9.54 6.26 10.55 7.67 12.49 7.67 14.12 7.67 15.41 6.26 17.83 6.26ZM 17.27 0.01C 17.75 3.01 15 6.73 11.72 6.61 11.24 2.79 14.78 0.21 17.27 0.01Z" fill="rgb(255,255,255)"/></svg>